# xmcd
#
# Track frame offsets: 
#        150
#        10735
#        16785
#        31867
#        42274
#        70453
#        84693
#
# Disc length: 2188 seconds
#
# Revision: 2
# Processed by: cddbd v1.5.2PL0 Copyright (c) Steve Scherf et al.
# Submitted via: ExactAudioCopy v0.99pb5
#
DISCID=4b088a07
DTITLE=Los Campesinos - Sticking Finger Into Sockets
DYEAR=2007
DGENRE=rock
TTITLE0=We Throw Parties, You Throw Knives
TTITLE1=It Started With A Mixx
TTITLE2=Don't Tell Me To Do The Mathlsl
TTITLE3=Fronwards
TTITLE4=You! Me! Dancing!
TTITLE5=Clunk-rewind-cluk-play-clunk
TTITLE6=Video
EXTD=
EXTT0=
EXTT1=
EXTT2=
EXTT3=
EXTT4=
EXTT5=
EXTT6=
PLAYORDER=
